<svg xmlns="http://www.w3.org/2000/svg" viewBox="0 0 56 56"><path d="M28.72 20.274c-12.917 0-23.387 9.623-23.387 21.493 0 3.131.734 6.104 2.044 8.785 5.76 2.927 12.865 2.658 20.557 2.658 8.653 0 16.563-.192 22.65-3.812a19.926 19.926 0 001.522-7.632c.001-11.869-10.469-21.492-23.386-21.492z" fill="#f0c419"/><path d="M28 20.783a1 1 0 01-1-1v-10a1 1 0 012 0v10a1 1 0 01-1 1z" fill="#d1d4d1"/><path d="M51.959 44.081l-.783.447c-6.042 3.411-13.82 3.682-23.361 3.682l-1.887.003c-7.145.016-13.898.036-19.275-2.538l-1.049-.664c.15.904.362 1.788.63 2.651 5.218 2.35 11.355 2.553 17.877 2.553l1.821-.003 1.882-.003c9.496 0 17.313-.28 23.664-3.584.212-.831.379-1.678.481-2.544z" fill="#e57e25"/><path d="M28.118 21.28c.585.118 2.889 2.034 4.852 5.864 1.964 3.833 4.594 11.728.142 21.54a1 1 0 001.822.827c5.579-12.294.896-21.822-1.375-25.348-.931-1.445-2.113-2.893-3.245-3.833a25.413 25.413 0 00-1.592-.055c-.528 0-1.051.022-1.571.054.023.528.431.951.967.951z" fill="#e57e25"/><path d="M28.906 20.283l-.001-.005c-.062 0-.123-.004-.185-.004-1.064 0-2.109.071-3.135.198-1.079.94-2.19 2.319-3.074 3.69-2.271 3.526-6.953 13.054-1.374 25.348a1 1 0 101.822-.827c-4.453-9.812-1.823-17.707.141-21.54 1.963-3.83 4.266-5.747 4.806-5.861a.998.998 0 001-.999z" fill="#e57e25"/><path fill="#a5a5a4" d="M0 9.113v-.006zm27.977-.177l.023.017V8.92z"/><path d="M0 9.11c.001 1.58 1.029 2.929 2.692 3.917-1.17-.695-2.021-1.569-2.424-2.578l1.417.515c5.176 2.205 11.364-.324 12.287-.728.05-.037.091-.083.149-.111.304-.143 7.326-3.369 13.565-.992a17.284 17.284 0 01.291-.198c-.245-.183-8.296-6.153-17.781-6.153C4.623 2.783.003 5.767 0 9.11z" fill="#ecf0f1"/><path d="M15.097 11.881c-.05.036-.089.082-.147.109-.222.104-4.059 1.876-8.55 1.876-.788 0-1.596-.066-2.408-.194 1.709.706 3.837 1.111 6.146 1.111h.045c7.983 0 14.956-4.018 17.116-5.397a35.3 35.3 0 01-1.93 1.135c-4.622-.965-9.467 1.011-10.272 1.36zM3.311 13.364zm.681.309z" fill="#a5a5a4"/><path d="M27.364 9.343zm-23.372 4.33zm-1.269-.627l-.03-.018.03.018zm.62.333l-.031-.016.031.016zm10.778-3.253c-.058.027-.099.074-.149.111-.923.404-7.11 2.932-12.287.728L.269 10.45c.403 1.008 1.254 1.883 2.424 2.578l.03.018c.188.111.385.217.589.318l.031.016c.209.103.425.201.649.293.812.128 1.62.194 2.408.194 4.491 0 8.328-1.771 8.55-1.876.058-.027.097-.073.147-.109.806-.35 5.65-2.325 10.271-1.361.827-.453 1.482-.85 1.93-1.135l.066-.042.322-.209c-6.239-2.377-13.261.848-13.565.991zm40.765-3.8zm-26.863 2.61zm.018-.013l.095-.069-.095.069z" fill="#d1d4d1"/><path d="M40.674 6.401c.047-.036.084-.081.139-.109.283-.142 6.663-3.277 12.455-1.408.63.428 1.17.905 1.599 1.418-1.702-2.04-5.143-3.519-9.063-3.519-6.819 0-12.89 3.085-15.864 4.891 4.614 1.433 9.912-.889 10.734-1.273z" fill="#ecf0f1"/><path fill="#d1d4d1" d="M28 8.953l.023-.017z"/><path d="M55.809 7.951l-2.349-.872c-4.83-2.059-10.76.539-11.633.946-.047.035-.084.081-.139.109-.218.11-4.071 2.01-8.482 2.01-1.522 0-3.108-.239-4.636-.843 1.986 1.286 9.088 5.483 17.248 5.483h.045c5.573 0 10.134-2.33 10.137-5.673-.001-.68-.201-1.344-.553-1.972.149.264.272.535.362.812z" fill="#a5a5a4"/><path fill="#d1d4d1" d="M56 9.107v.006zm-27.418-.563zm-.332.229z"/><path fill="#a5a5a4" d="M28.023 8.936L28 8.92l.023.016zM28 8.92v.033l.023-.017zm.57.381l-.002-.002zm-.016-.738l.028-.019-.028.019zm26.313-2.261l.019.024a.398.398 0 00-.019-.024zM28.041 8.923zm.094-.068l.115-.081a6.93 6.93 0 00-.115.081zm1.805-1.18l-.005.003.005-.003zm25.461-.614l.046.076-.046-.076z"/><path d="M41.688 8.133c.055-.027.091-.073.139-.109.873-.406 6.803-3.004 11.632-.945l2.349.872a4.433 4.433 0 00-.362-.813c-.014-.026-.031-.051-.046-.076a5.48 5.48 0 00-.533-.759 7.785 7.785 0 00-1.599-1.418c-5.792-1.868-12.172 1.267-12.455 1.408-.055.027-.091.073-.139.109-.822.383-6.12 2.706-10.734 1.274l-.006.003a31.22 31.22 0 00-1.352.866l-.028.019c-.124.084-.222.153-.304.21l-.115.081a3.376 3.376 0 00-.113.082c.034.024.224.155.545.363l.002.001c1.528.604 3.114.843 4.636.843 4.412 0 8.265-1.901 8.483-2.011z" fill="#d1d4d1"/></svg>